<svg width="29" height="29" viewBox="0 0 29 29" fill="none" xmlns="http://www.w3.org/2000/svg">
  <path
    d="M26.2812 0H8.15625C6.65471 0 5.4375 1.21721 5.4375 2.71875V5.4375H2.71875C1.21721 5.4375 0 6.65471 0 8.15625V26.2812C0 27.7828 1.21721 29 2.71875 29H20.8438C22.3453 29 23.5625 27.7828 23.5625 26.2812V23.5625H26.2812C27.7828 23.5625 29 22.3453 29 20.8438V2.71875C29 1.21721 27.7828 0 26.2812 0ZM20.5039 26.2812H3.05859C2.96846 26.2812 2.88202 26.2454 2.81829 26.1817C2.75455 26.118 2.71875 26.0315 2.71875 25.9414V8.49609C2.71875 8.40596 2.75455 8.31952 2.81829 8.25579C2.88202 8.19205 2.96846 8.15625 3.05859 8.15625H5.4375V20.8438C5.4375 22.3453 6.65471 23.5625 8.15625 23.5625H20.8438V25.9414C20.8438 26.0315 20.8079 26.118 20.7442 26.1817C20.6805 26.2454 20.594 26.2812 20.5039 26.2812ZM25.9414 20.8438H8.49609C8.40596 20.8438 8.31952 20.8079 8.25579 20.7442C8.19205 20.6805 8.15625 20.594 8.15625 20.5039V3.05859C8.15625 2.96846 8.19205 2.88202 8.25579 2.81829C8.31952 2.75455 8.40596 2.71875 8.49609 2.71875H25.9414C26.0315 2.71875 26.118 2.75455 26.1817 2.81829C26.2454 2.88202 26.2812 2.96846 26.2812 3.05859V20.5039C26.2812 20.594 26.2454 20.6805 26.1817 20.7442C26.118 20.8079 26.0315 20.8438 25.9414 20.8438Z"
    fill="#646464" />
</svg>