<svg width="24" height="29" viewBox="0 0 24 29" fill="none" xmlns="http://www.w3.org/2000/svg">
  <path
    d="M4.35689 23.2H23.2497V0H4.35689C1.95362 0 0 1.9488 0 4.34613V24.6461C0 27.0435 1.95362 29 4.35689 29H23.2497V26.1H4.35689C3.55839 26.1 2.89943 25.4504 2.89943 24.6461C2.89943 23.8419 3.55063 23.2 4.35689 23.2ZM2.89943 4.35387C2.89943 3.55733 3.55063 2.90773 4.35689 2.90773H20.3503V20.3077H4.35689C3.84523 20.3077 3.35682 20.3928 2.89943 20.5552V4.35387Z"
    fill="#646464" />
  <path d="M13.0784 5.80005H10.1713V8.70005H13.0784V5.80005Z" fill="#646464" />
  <path d="M13.0784 10.1538H10.1713V17.4077H13.0784V10.1538Z" fill="#646464" />
</svg>